<svg xmlns="http://www.w3.org/2000/svg"  viewBox="0 0 512 512" width="512px" height="512px"><path d="M 283 24 L 283 170 L 316.07422 170 A 7.819 7.819 0 0 1 324 177.86133 L 324 209.27734 L 376.63867 171.43945 A 8.053 8.053 0 0 1 381.35352 170 L 485 170 L 485 24 L 283 24 z M 365.21094 54.177734 C 369.77094 54.177734 374.21102 55.864844 375.29102 59.464844 L 398.44922 134.95508 A 5.483 5.483 0 0 1 398.68945 136.18555 C 398.68945 139.90555 393.04961 142.72461 388.84961 142.72461 C 386.21061 142.72461 384.16931 142.00361 383.57031 139.72461 L 379.01172 124 L 351.53125 124 L 346.97266 139.72266 C 346.37266 142.00366 344.33141 142.60547 341.69141 142.60547 C 337.49141 142.60547 331.85352 139.96595 331.85352 136.12695 A 6.9 6.9 0 0 1 332.09375 134.92773 L 355.25195 59.453125 C 356.33195 55.853125 360.77194 54.177734 365.21094 54.177734 z M 427 54.888672 C 430.84 54.888672 435 56.330453 435 59.689453 L 435 137.68945 C 435 140.92845 430.84 142.60938 427 142.60938 C 423.04 142.60938 419 140.92845 419 137.68945 L 419 59.689453 C 419 56.330453 423.04 54.888672 427 54.888672 z M 27 56 L 27 326 L 463 326 L 463 186 L 383.93555 186 L 320.74219 231.46484 A 7.951 7.951 0 0 1 316.05469 232.9043 A 8.05 8.05 0 0 1 308 224.9043 L 308 186 L 275.26562 186 A 8.35 8.35 0 0 1 267 177.86133 L 267 56 L 27 56 z M 365.21094 74.162109 L 354.77148 111 L 375.65039 111 L 365.21094 74.162109 z M 27 342 L 27 401 L 463 401 L 463 342 L 27 342 z M 191.22461 417 L 175.71094 472 L 131.625 472 A 8 8 0 0 0 131.625 488 L 358.69141 488 A 8 8 0 0 0 366.69141 480 A 8 8 0 0 0 358.69141 472 L 314.60742 472 L 299.09375 417 L 191.22461 417 z"/></svg>